<svg viewBox="0 0 100 100" fill="none" xmlns="http://www.w3.org/2000/svg">
  <!-- Background -->
  <rect width="100" height="100" fill="#2563eb" rx="20"/>
  
  <!-- Outer hexagon - representing distributed network -->
  <path
    d="M50 15 L75 30 L75 70 L50 85 L25 70 L25 30 Z"
    stroke="white"
    stroke-width="2"
    fill="none"
    opacity="0.6"
  />
  
  <!-- Inner hexagon -->
  <path
    d="M50 25 L65 35 L65 65 L50 75 L35 65 L35 35 Z"
    stroke="white"
    stroke-width="2"
    fill="none"
    opacity="0.8"
  />
  
  <!-- Snowflake/crystal center -->
  <g opacity="1">
    <!-- Center hexagon -->
    <path
      d="M50 42 L56 46 L56 54 L50 58 L44 54 L44 46 Z"
      fill="white"
      opacity="0.4"
    />
    
    <!-- Six crystalline rays -->
    <line x1="50" y1="50" x2="50" y2="30" stroke="white" stroke-width="2.5" stroke-linecap="round" />
    <line x1="50" y1="50" x2="67.32" y2="40" stroke="white" stroke-width="2.5" stroke-linecap="round" />
    <line x1="50" y1="50" x2="67.32" y2="60" stroke="white" stroke-width="2.5" stroke-linecap="round" />
    <line x1="50" y1="50" x2="50" y2="70" stroke="white" stroke-width="2.5" stroke-linecap="round" />
    <line x1="50" y1="50" x2="32.68" y2="60" stroke="white" stroke-width="2.5" stroke-linecap="round" />
    <line x1="50" y1="50" x2="32.68" y2="40" stroke="white" stroke-width="2.5" stroke-linecap="round" />
    
    <!-- Small nodes at ray endpoints -->
    <circle cx="50" cy="30" r="3" fill="white" />
    <circle cx="67.32" cy="40" r="3" fill="white" />
    <circle cx="67.32" cy="60" r="3" fill="white" />
    <circle cx="50" cy="70" r="3" fill="white" />
    <circle cx="32.68" cy="60" r="3" fill="white" />
    <circle cx="32.68" cy="40" r="3" fill="white" />
    
    <!-- Center point -->
    <circle cx="50" cy="50" r="4" fill="white" />
  </g>
</svg>
